<svg xmlns="http://www.w3.org/2000/svg" version="1.1" xmlns:xlink="http://www.w3.org/1999/xlink" xmlns:svgjs="http://svgjs.dev/svgjs" width="1440" height="650" preserveAspectRatio="none" viewBox="0 0 1440 650"><g mask="url(&quot;#SvgjsMask1068&quot;)" fill="none"><rect width="1440" height="650" x="0" y="0" fill="rgba(243, 236, 236, 1)"></rect><path d="M0,355.41C102.229,357.131,193.999,489.32,286.567,445.906C375.142,404.364,364.012,271.122,383.943,175.341C400.001,98.172,403.722,21.572,391.057,-56.226C378.593,-132.79,365.697,-214.421,311.465,-269.886C258.277,-324.283,176.074,-329.613,103.01,-350.819C30.197,-371.952,-40.254,-401.888,-115.644,-393.846C-200.475,-384.797,-298.197,-370.97,-349.197,-302.581C-400.099,-234.324,-363.214,-138.055,-369.709,-53.156C-375.676,24.841,-399.859,99.244,-385.824,176.2C-368.689,270.15,-367.044,396.128,-280.431,436.359C-190.367,478.192,-99.291,353.738,0,355.41" fill="#caabab"></path><path d="M1440 1230.989C1547.158 1213.153 1647.752 1173.797 1735.2359999999999 1109.396 1818.769 1047.904 1887.85 968.463 1927.068 872.437 1965.3139999999999 778.79 1971.269 675.733 1952.976 576.245 1935.158 479.34000000000003 1873.141 402.40999999999997 1824.851 316.525 1763.204 206.885 1748.845 44.00300000000004 1630.211 2.201999999999998 1512.858-39.14700000000005 1406.667 95 1286.372 126.79100000000005 1161.23 159.86200000000002 1005.216 102.755 911.574 192.11599999999999 818.274 281.15 810.379 434.83299999999997 830.003 562.296 847.431 675.493 972.2819999999999 738.024 1012.153 845.391 1057.058 966.316 978.2149999999999 1133.092 1074.036 1219.451 1166.5720000000001 1302.8490000000002 1317.119 1251.442 1440 1230.989" fill="#ffffff"></path></g><defs><mask id="SvgjsMask1068"><rect width="1440" height="650" fill="#ffffff"></rect></mask></defs></svg>